<?xml version="1.0" encoding="utf-8"?>
<svg viewBox="0 0 500 500" xmlns="http://www.w3.org/2000/svg">
  <g transform="matrix(1, 0, 0, 1, 284.666809, -140.390381)">
    <g transform="matrix(1, 0, 0, 1, -381.774354, 133.087406)">
      <g transform="matrix(1, 0, 0, 1, 38.96331, 16.104837)">
        <path id="path-2" d="M 391.093 163.015 L 361.743 163.015 L 361.743 135.133 L 391.093 135.133 L 391.093 163.015 Z" style="fill: rgb(0, 113, 197);"/>
        <path id="path-2" d="M 391.167 295.233 C 369.189 293.121 361.712 279.789 361.712 264.406 L 361.744 178.921 L 391.167 178.921 L 391.167 295.233 Z" style="fill: rgb(0, 113, 197);"/>
      </g>
    </g>
  </g>
  <g id="g4421" transform="matrix(1.543177, 0, 0, 1.543177, 37.943016, 92.746552)" style="fill: rgb(0, 113, 197);">
    <g>
      <g>
        <g>
          <path id="path4423" d="M 142.559 176.16 C 133.267 177.019 142.572 176.178 117.805 178.55 C 117.805 178.55 117.744 197.62 117.916 197.619 C 132.874 197.51 139.388 196.677 146.093 196.025 C 177.903 192.921 219.537 182.692 248.482 166.806 L 248.482 144.236 C 222.218 159.876 178.756 172.809 142.559 176.16" style=""/>
          <path id="path4423" d="M 297.683 56.828 C 286.492 2.271 199.538 -11.408 121.51 11.892 C 101.993 17.72 83.035 25.862 65.96 36.257 L 65.96 41.993 C 83.242 33.111 101.99 26.041 120.99 20.935 C 195.716 0.857 274.35 11.174 283.133 61.259 C 286.818 82.031 275.113 103.688 254.208 116.136 L 254.208 132.422 C 279.37 123.217 305.175 93.367 297.683 56.828" style=""/>
          <path d="M 128.066 67.523 L 128.066 51.871 L 144.49 51.871 L 144.49 67.523 Z M 143.49 52.871 L 129.066 52.871 L 129.066 66.523 L 143.49 66.523 Z M 143.981 137.003 C 138.114 136.42 134.062 134.315 131.575 131.341 C 129.08 128.358 128.058 124.41 128.05 120.305 L 128.067 74.882 L 144.529 74.882 L 144.529 137.057 Z M 143.529 75.882 L 129.067 75.882 L 129.05 120.305 C 129.042 124.284 129.984 127.881 132.342 130.699 C 134.707 133.527 138.155 135.353 143.529 135.951 Z M 297.683 56.828 L 298.173 56.728 C 301.915 75.114 297.311 91.905 288.609 105.15 C 279.903 118.399 267.027 128.253 254.38 132.892 L 253.708 133.138 L 253.708 115.852 L 253.952 115.706 C 264.352 109.524 272.403 101.091 277.45 91.585 C 282.494 82.083 284.484 71.641 282.641 61.345 C 279.939 45.755 270.43 34.148 256.292 26.019 C 242.136 17.88 223.441 13.356 202.356 12.138 C 160.161 9.701 108.751 20.554 66.189 42.438 L 65.46 42.812 L 65.46 35.976 L 65.7 35.83 C 108.445 9.824 163.026 -2.13 208.611 0.986 C 231.414 2.544 252.055 7.884 267.827 17.103 C 275.719 21.716 282.445 27.338 287.603 33.923 C 290.183 37.216 292.394 40.783 294.166 44.575 C 295.051 46.471 295.836 48.443 296.504 50.464 C 296.838 51.474 297.147 52.507 297.424 53.549 C 297.563 54.07 297.696 54.598 297.82 55.127 C 297.945 55.655 298.17 56.713 298.17 56.713 C 298.17 56.715 297.927 56.772 297.683 56.828 Z M 297.193 56.928 C 297.166 56.801 296.961 55.842 296.847 55.356 C 296.724 54.834 296.595 54.32 296.458 53.806 C 296.184 52.779 295.884 51.774 295.555 50.778 C 294.896 48.785 294.133 46.868 293.26 44.998 C 291.513 41.259 289.362 37.79 286.816 34.54 C 281.722 28.037 275.143 22.537 267.322 17.966 C 251.668 8.816 231.254 3.536 208.543 1.983 C 163.097 -1.123 109.016 10.695 66.46 36.538 L 66.46 41.176 C 109.006 19.496 160.088 8.696 202.413 11.14 C 223.588 12.363 242.513 16.943 256.79 25.152 C 271.083 33.37 280.819 45.352 283.625 61.172 C 285.467 71.648 283.447 82.421 278.333 92.053 C 273.223 101.68 265.097 110.166 254.708 116.419 L 254.708 131.702 C 267.001 127.039 279.158 117.712 287.773 104.601 C 296.391 91.484 300.943 75.081 297.193 56.928 Z M 142.513 175.662 L 142.513 175.662 C 178.662 172.32 222.019 159.422 248.226 143.806 L 248.982 143.356 L 248.982 167.102 L 248.723 167.244 C 219.717 183.154 177.987 193.413 146.141 196.523 C 105.888 200.429 72.497 196.491 47.986 186.37 C 23.444 176.237 7.675 159.782 2.691 138.908 C -5.003 106.362 8.472 78.715 33.214 56.993 L 34.044 56.265 L 34.044 65.552 L 33.912 65.695 C 20.247 80.564 9.972 104.399 14.193 126.941 C 18.394 149.802 35.716 163.235 59.409 170.419 C 71.263 174.013 84.665 176 98.812 176.754 C 105.886 177.131 113.128 177.197 120.451 177 C 124.112 176.902 127.787 176.737 131.47 176.512 C 133.311 176.4 135.152 176.272 136.993 176.13 C 137.914 176.059 138.834 175.985 139.754 175.907 C 140.214 175.868 140.674 175.828 141.134 175.787 C 141.582 175.747 142.466 175.666 142.513 175.662 Z M 142.559 176.16 C 142.581 176.409 142.603 176.658 142.603 176.658 C 142.603 176.658 141.683 176.742 141.222 176.783 C 140.761 176.824 140.3 176.864 139.839 176.903 C 138.917 176.981 137.993 177.056 137.07 177.127 C 135.225 177.27 133.376 177.398 131.531 177.51 C 127.84 177.736 124.148 177.901 120.478 178 C 113.137 178.198 105.855 178.13 98.759 177.752 C 84.565 176.996 71.043 174.991 59.119 171.376 C 35.254 164.14 17.595 150.287 13.209 127.125 C 9.022 104.293 19.353 80.183 33.044 65.163 L 33.044 58.478 C 8.952 79.925 -4.067 106.466 3.663 138.676 C 8.522 159.32 24.011 175.389 48.367 185.446 C 72.754 195.515 105.899 199.435 146.045 195.527 C 177.819 192.429 219.109 182.291 247.982 166.51 L 247.982 145.112 C 221.589 160.576 178.85 173.298 142.605 176.658 Z" style="fill: none;"/>
          <g style="" transform="matrix(1.23312, 0, 0, 1.23312, 353.582581, 33.003952)"/>
        </g>
      </g>
    </g>
    <path d="M 260.352 58.801 L 260.352 59.677 C 258.541 59.655 256.816 58.904 255.644 57.728 C 254.472 56.552 253.707 54.829 253.707 53.036 C 253.707 51.246 254.471 49.522 255.643 48.345 C 256.815 47.169 258.54 46.393 260.352 46.393 C 262.145 46.393 263.873 47.168 265.053 48.344 C 266.233 49.52 267.012 51.244 267.012 53.036 C 267.012 54.831 266.233 56.555 265.053 57.729 C 263.872 58.904 260.705 59.531 260.705 59.531 C 260.648 59.571 260.447 59.046 260.352 58.801 Z M 260.352 58.678 C 260.472 58.674 260.775 58.663 260.928 58.648 C 261.121 58.628 261.299 58.601 261.487 58.562 C 261.862 58.485 262.2 58.379 262.546 58.233 C 263.237 57.94 263.821 57.544 264.347 57.021 C 265.402 55.971 266.012 54.624 266.012 53.036 C 266.012 51.451 265.402 50.103 264.347 49.052 C 263.292 48.001 261.94 47.393 260.352 47.393 C 258.746 47.393 257.398 48 256.352 49.051 C 255.306 50.101 254.707 51.449 254.707 53.036 C 254.707 54.626 255.306 55.973 256.352 57.022 C 257.398 58.071 258.745 58.699 260.352 58.677 Z M 260.301 58.68 C 260.301 58.68 260.301 58.68 260.301 58.68 C 260.301 58.68 260.301 58.68 260.301 58.68 Z M 260.352 47.417 C 261.855 47.44 263.318 48.082 264.304 49.075 C 265.291 50.068 265.948 51.535 265.948 53.036 C 265.948 54.539 265.29 56 264.303 56.984 C 263.316 57.968 261.854 58.623 260.352 58.623 C 258.843 58.623 257.383 57.968 256.399 56.983 C 255.416 55.999 254.764 54.539 254.764 53.036 C 254.764 51.536 255.415 50.069 256.398 49.076 C 256.891 48.578 257.519 48.145 258.173 47.864 C 258.826 47.584 260.155 47.458 260.155 47.458 C 260.182 47.449 260.276 47.796 260.352 48.073 Z M 260.454 48.407 C 260.454 48.407 260.454 48.407 260.454 48.407 C 260.454 48.407 260.454 48.407 260.454 48.407 Z M 259.428 48.512 C 259.121 48.575 258.85 48.662 258.568 48.783 C 258.004 49.025 257.536 49.347 257.109 49.779 C 256.25 50.647 255.764 51.739 255.764 53.036 C 255.764 54.334 256.249 55.418 257.107 56.277 C 257.964 57.135 259.048 57.623 260.352 57.623 C 261.649 57.623 262.735 57.135 263.597 56.276 C 264.458 55.417 264.948 54.334 264.948 53.036 C 264.948 51.74 264.457 50.648 263.595 49.78 C 262.733 48.913 261.648 48.394 260.352 48.417 L 260.352 48.413 C 260.143 48.427 259.663 48.463 259.428 48.512 Z" style="fill: none;"/>
    <path d="M 260.352 58.801 L 260.352 59.677 C 258.541 59.655 256.816 58.904 255.644 57.728 C 254.472 56.552 253.707 54.829 253.707 53.036 C 253.707 51.246 254.471 49.522 255.643 48.345 C 256.815 47.169 258.54 46.393 260.352 46.393 C 262.145 46.393 263.873 47.168 265.053 48.344 C 266.233 49.52 267.012 51.244 267.012 53.036 C 267.012 54.831 266.233 56.555 265.053 57.729 C 263.872 58.904 260.705 59.531 260.705 59.531 C 260.648 59.571 260.447 59.046 260.352 58.801 Z M 260.352 58.678 C 260.472 58.674 260.775 58.663 260.928 58.648 C 261.121 58.628 261.299 58.601 261.487 58.562 C 261.862 58.485 262.2 58.379 262.546 58.233 C 263.237 57.94 263.821 57.544 264.347 57.021 C 265.402 55.971 266.012 54.624 266.012 53.036 C 266.012 51.451 265.402 50.103 264.347 49.052 C 263.292 48.001 261.94 47.393 260.352 47.393 C 258.746 47.393 257.398 48 256.352 49.051 C 255.306 50.101 254.707 51.449 254.707 53.036 C 254.707 54.626 255.306 55.973 256.352 57.022 C 257.398 58.071 258.745 58.699 260.352 58.677 Z M 260.301 58.68 C 260.301 58.68 260.301 58.68 260.301 58.68 C 260.301 58.68 260.301 58.68 260.301 58.68 Z M 260.352 47.417 C 261.855 47.44 263.318 48.082 264.304 49.075 C 265.291 50.068 265.948 51.535 265.948 53.036 C 265.948 54.539 265.29 56 264.303 56.984 C 263.316 57.968 261.854 58.623 260.352 58.623 C 258.843 58.623 257.383 57.968 256.399 56.983 C 255.416 55.999 254.764 54.539 254.764 53.036 C 254.764 51.536 255.415 50.069 256.398 49.076 C 256.891 48.578 257.519 48.145 258.173 47.864 C 258.826 47.584 260.155 47.458 260.155 47.458 C 260.182 47.449 260.276 47.796 260.352 48.073 Z M 260.454 48.407 C 260.454 48.407 260.454 48.407 260.454 48.407 C 260.454 48.407 260.454 48.407 260.454 48.407 Z M 259.428 48.512 C 259.121 48.575 258.85 48.662 258.568 48.783 C 258.004 49.025 257.536 49.347 257.109 49.779 C 256.25 50.647 255.764 51.739 255.764 53.036 C 255.764 54.334 256.249 55.418 257.107 56.277 C 257.964 57.135 259.048 57.623 260.352 57.623 C 261.649 57.623 262.735 57.135 263.597 56.276 C 264.458 55.417 264.948 54.334 264.948 53.036 C 264.948 51.74 264.457 50.648 263.595 49.78 C 262.733 48.913 261.648 48.394 260.352 48.417 L 260.352 48.413 C 260.143 48.427 259.663 48.463 259.428 48.512 Z" style="fill: none;"/>
    <path d="M 262.062 51.582 C 262.042 52.029 261.851 52.518 261.513 52.765 C 261.2 52.994 260.682 53.116 260.126 53.116 C 259.993 53.116 259.292 53.09 259.161 53.09 L 258.661 53.091 L 258.661 49.972 L 260.126 49.972 C 260.666 49.975 261.173 50.058 261.492 50.266 C 261.84 50.493 262.04 50.983 262.062 51.458 Z M 261.062 51.458 C 261.083 51.185 261.065 51.182 260.945 51.103 C 260.795 51.005 260.584 50.968 260.126 50.972 L 259.661 50.972 L 259.661 52.103 C 259.868 52.11 260.011 52.116 260.126 52.116 C 260.569 52.116 260.768 52.071 260.923 51.958 C 261.054 51.863 261.081 51.835 261.062 51.582 Z M 261.923 57.211 C 261.674 57.164 261.376 56.99 261.255 56.814 L 259.771 54.298 L 259.709 54.298 L 259.709 56.419 C 259.697 56.568 259.627 56.814 259.519 56.941 C 259.413 57.066 259.14 57.181 258.929 57.211 L 258.425 57.211 C 259.002 57.479 259.645 57.623 260.352 57.623 C 261.056 57.623 261.697 57.479 262.274 57.211 Z M 257.137 49.788 C 257.137 49.775 257.138 49.762 257.138 49.749 C 257.128 49.759 257.118 49.769 257.108 49.779 C 256.25 50.647 255.764 51.739 255.764 53.036 C 255.764 54.334 256.249 55.418 257.107 56.276 C 257.117 56.286 257.127 56.296 257.137 56.306 Z M 260.002 48.613 C 260.997 48.613 261.913 48.784 262.523 49.205 C 263.147 49.638 263.524 50.456 263.55 51.458 L 263.55 51.582 C 263.537 52.211 263.36 52.793 263.066 53.178 C 262.768 53.568 262.635 53.617 262.36 53.776 L 263.746 56.12 C 264.515 55.287 264.948 54.256 264.948 53.036 C 264.948 51.74 264.457 50.648 263.595 49.78 C 262.733 48.912 261.648 48.394 260.352 48.417 L 260.352 48.412 C 260.143 48.426 259.664 48.462 259.428 48.511 C 259.261 48.546 259.104 48.588 258.95 48.638 C 259.328 48.622 259.727 48.613 260.002 48.613 Z M 263.066 56.711 L 263.066 56.736 C 263.071 56.732 263.075 56.729 263.08 56.726 C 263.075 56.721 263.071 56.716 263.066 56.711 Z M 262.694 56.376 C 262.694 56.376 262.696 56.375 262.7 56.374 C 262.698 56.374 262.696 56.375 262.694 56.376 Z M 260.898 53.268 L 261.489 53.08 C 261.863 52.962 262.081 52.82 262.271 52.572 C 262.465 52.318 262.562 52.056 262.55 51.582 L 262.55 51.458 C 262.575 50.676 262.377 50.321 261.953 50.027 C 261.513 49.723 260.906 49.613 260.002 49.613 C 259.476 49.613 258.516 49.644 258.176 49.69 C 258.151 49.692 258.137 49.691 258.129 49.691 C 258.128 49.694 258.131 49.709 258.137 49.788 L 258.137 56.211 L 258.709 56.211 L 258.709 53.298 L 259.91 53.298 C 260.071 53.322 260.428 53.522 260.569 53.685 L 262.06 56.211 L 262.638 56.211 Z M 260.352 48.073 L 260.352 47.417 C 261.855 47.439 263.318 48.082 264.304 49.075 C 265.291 50.068 265.948 51.536 265.948 53.036 C 265.948 54.539 265.29 56 264.303 56.984 C 263.316 57.968 261.854 58.623 260.352 58.623 C 258.843 58.623 257.383 57.968 256.399 56.983 C 255.416 55.998 254.764 54.539 254.764 53.036 C 254.764 51.536 255.415 50.069 256.398 49.076 C 256.891 48.578 257.519 48.145 258.173 47.864 C 258.826 47.583 260.155 47.457 260.155 47.457 C 260.182 47.448 260.276 47.796 260.352 48.073 Z M 260.454 48.406 C 260.454 48.406 260.454 48.406 260.454 48.406 C 260.454 48.406 260.454 48.406 260.454 48.406 Z M 260.352 59.677 C 258.541 59.655 256.816 58.904 255.644 57.728 C 254.472 56.553 253.707 54.829 253.707 53.036 C 253.707 51.246 254.472 49.522 255.644 48.345 C 256.816 47.169 258.541 46.393 260.352 46.393 C 262.145 46.393 263.873 47.168 265.053 48.344 C 266.233 49.52 267.012 51.244 267.012 53.036 C 267.012 54.831 266.233 56.555 265.053 57.73 C 263.873 58.905 260.705 59.532 260.705 59.532 C 260.648 59.571 260.448 59.046 260.352 58.801 Z M 260.302 58.68 C 260.302 58.68 260.302 58.68 260.302 58.68 C 260.302 58.68 260.302 58.68 260.302 58.68 Z M 260.928 58.648 C 261.121 58.628 261.3 58.601 261.487 58.562 C 261.862 58.485 262.201 58.379 262.546 58.233 C 263.237 57.941 263.822 57.544 264.347 57.021 C 265.402 55.971 266.012 54.625 266.012 53.036 C 266.012 51.451 265.401 50.103 264.347 49.052 C 263.292 48.001 261.94 47.393 260.352 47.393 C 258.746 47.393 257.398 48.001 256.352 49.051 C 255.307 50.101 254.707 51.449 254.707 53.036 C 254.707 54.626 255.306 55.973 256.352 57.022 C 257.398 58.072 258.746 58.699 260.352 58.677 L 260.352 58.678 C 260.472 58.675 260.775 58.664 260.928 58.648 Z" style="fill: none;"/>
  </g>
  <g transform="matrix(12.280463, 0, 0, 11.994841, -1936.445923, -2432.510986)" style="">
    <path id="path-1" style="fill:#8cc63f;fill-opacity:1;fill-rule:nonzero;stroke:none;stroke-width:0.153876" d="M 162.614 221.594 C 162.614 221.594 166.954 215.19 175.62 214.529 L 175.62 212.205 C 166.022 212.976 157.71 221.105 157.71 221.105 C 157.71 221.105 162.417 234.714 175.62 235.96 L 175.62 233.49 C 165.932 232.272 162.614 221.594 162.614 221.594 M 175.62 228.58 L 175.62 230.841 C 168.297 229.536 166.265 221.924 166.265 221.924 C 166.265 221.924 169.781 218.029 175.62 217.397 L 175.62 219.88 C 175.616 219.88 175.612 219.878 175.609 219.878 C 172.545 219.51 170.15 222.373 170.15 222.373 C 170.15 222.373 171.492 227.192 175.62 228.58"/>
  </g>
</svg>