<?xml version="1.0" encoding="utf-8"?>
<svg viewBox="0 0 500 500" xmlns="http://www.w3.org/2000/svg">
  <defs>
    <linearGradient id="grad1" x1="404.48" y1="532.08" x2="404.68" y2="510.92" gradientUnits="userSpaceOnUse" gradientTransform="matrix(1.050169, 0, 0, 1.073372, -238.977127, -337.191437)">
      <stop offset="0" stop-color="#e91a14"/>
      <stop offset="1" stop-color="#ff7084"/>
    </linearGradient>
  </defs>
  <g transform="matrix(12.092885, 0, 0, 11.994841, -1905.803101, -2436.845215)" style="">
    <path id="path24" style="fill:#8cc63f;fill-opacity:1;fill-rule:nonzero;stroke:none;stroke-width:0.153876" d="M 162.614 221.594 C 162.614 221.594 166.954 215.19 175.62 214.529 L 175.62 212.205 C 166.022 212.976 157.71 221.105 157.71 221.105 C 157.71 221.105 162.417 234.714 175.62 235.96 L 175.62 233.49 C 165.932 232.272 162.614 221.594 162.614 221.594 M 175.62 228.58 L 175.62 230.841 C 168.297 229.536 166.265 221.924 166.265 221.924 C 166.265 221.924 169.781 218.029 175.62 217.397 L 175.62 219.88 C 175.616 219.88 175.612 219.878 175.609 219.878 C 172.545 219.51 170.15 222.373 170.15 222.373 C 170.15 222.373 171.492 227.192 175.62 228.58"/>
    <path d="M 175.661 212.193 L 182.056 218.729 L 192.519 218.729 L 192.519 229.424 L 198.914 235.96 L 198.914 212.195 L 175.663 212.195 M 182.057 219.919 L 175.663 226.456 L 175.663 235.962 L 184.965 235.962 L 191.358 229.427 L 182.057 229.427 L 182.057 219.919" fill="url(#grad1)" fill-rule="evenodd" style=""/>
  </g>
</svg>