<?xml version="1.0" encoding="utf-8"?>
<svg viewBox="0 0 500 500" xmlns="http://www.w3.org/2000/svg">
  <g transform="matrix(12.280463, 0, 0, 11.994841, -1936.751953, -2431.855957)" style="">
    <path id="path24" style="fill:#8cc63f;fill-opacity:1;fill-rule:nonzero;stroke:none;stroke-width:0.153876" d="M 162.614 221.594 C 162.614 221.594 166.954 215.19 175.62 214.529 L 175.62 212.205 C 166.022 212.976 157.71 221.105 157.71 221.105 C 157.71 221.105 162.417 234.714 175.62 235.96 L 175.62 233.49 C 165.932 232.272 162.614 221.594 162.614 221.594 M 175.62 228.58 L 175.62 230.841 C 168.297 229.536 166.265 221.924 166.265 221.924 C 166.265 221.924 169.781 218.029 175.62 217.397 L 175.62 219.88 C 175.616 219.88 175.612 219.878 175.609 219.878 C 172.545 219.51 170.15 222.373 170.15 222.373 C 170.15 222.373 171.492 227.192 175.62 228.58"/>
  </g>
  <g transform="matrix(1.137023, 0, 0, 1.229836, -4.504761, -59.365936)" style="">
    <path d="M 203.33 146.443 L 437.652 146.443 L 437.652 366.488 L 203.33 366.488 L 203.33 146.443 Z" style="stroke-opacity: 0.9; fill: rgb(53, 132, 228);"/>
    <path d="M 220.307 162.385 L 421.273 162.385 L 421.273 351.107 L 220.307 351.107 L 220.307 162.385 Z" style="" fill="#FDFFFE"/>
    <path d="M 443.629 372.101 L 197.233 372.101 L 197.233 140.717 L 443.629 140.717 L 443.629 372.101 Z M 437.652 146.443 L 203.33 146.443 L 203.33 366.488 L 437.652 366.488 L 437.652 146.443 Z" style="fill: rgb(53, 132, 228);"/>
    <path d="M 423.425 353.128 L 217.437 353.128 L 217.437 159.69 L 423.425 159.69 L 423.425 353.128 Z M 418.404 164.406 L 222.459 164.406 L 222.459 348.3 L 418.284 348.3 L 418.404 164.406 Z" style="fill: rgb(53, 132, 228);"/>
  </g>
  <rect x="105.964" y="278.118" width="174.668" height="22.189" style="fill: rgb(53, 132, 228);" transform="matrix(0.999999, -0.001347, 0, 1.000001, 169.987869, -52.296619)"/>
  <rect x="303.86" y="267.431" width="112.887" height="21.688" style="fill: rgb(53, 132, 228);"/>
</svg>