<?xml version="1.0" encoding="utf-8"?>
<svg viewBox="0 0 500 500" xmlns="http://www.w3.org/2000/svg">
  <g transform="matrix(0.403579, 0, 0, 0.403579, -0.348534, 40.920502)" style="">
    <path d="M 195.254 93.288 L 1045.695 93.288 L 1045.695 943.729 L 195.254 943.729 L 195.254 93.288 Z" style="fill: rgb(53, 132, 228);"/>
    <path d="M 256.868 154.902 L 986.251 154.902 L 986.251 884.285 L 256.868 884.285 L 256.868 154.902 Z" fill="#FDFFFE"/>
    <path d="M 320.278 776.555 C 320.278 815.014 362.445 839.051 396.179 819.822 C 411.835 810.897 421.48 794.404 421.48 776.555 C 421.48 738.095 379.312 714.058 345.578 733.288 C 329.922 742.212 320.278 758.706 320.278 776.555 Z" style="fill: rgb(53, 132, 228);"/>
    <rect x="305.244" y="804.551" width="503.169" height="64.194" style="fill: rgb(53, 132, 228);" transform="matrix(0.999999, -0.001347, 0, 1.000001, 62.8988, -381.248688)"/>
    <rect x="421.48" y="543.63" width="402.868" height="62.913" style="fill: rgb(53, 132, 228);"/>
    <path d="M 824.348 777.766 C 824.348 816.225 866.515 840.262 900.249 821.033 C 915.905 812.108 925.55 795.615 925.55 777.766 C 925.55 739.306 883.382 715.269 849.648 734.499 C 833.992 743.423 824.348 759.917 824.348 777.766 Z" style="fill: rgb(53, 132, 228);"/>
    <path d="M 824.348 266.29 C 824.348 304.749 866.515 328.786 900.249 309.557 C 915.905 300.632 925.55 284.139 925.55 266.29 C 925.55 227.83 883.382 203.793 849.648 223.023 C 833.992 231.947 824.348 248.441 824.348 266.29 Z" style="fill: rgb(53, 132, 228);"/>
    <path d="M 320.278 266.29 C 320.278 304.749 362.445 328.786 396.179 309.557 C 411.835 300.632 421.48 284.139 421.48 266.29 C 421.48 227.83 379.312 203.793 345.578 223.023 C 329.922 231.947 320.278 248.441 320.278 266.29 Z" style="fill: rgb(53, 132, 228);"/>
  </g>
</svg>