<?xml version="1.0" encoding="utf-8"?>
<svg viewBox="0 0 500 500" xmlns="http://www.w3.org/2000/svg">
  <g id="g4421" transform="matrix(1.674572, 0, 0, 1.674572, -1.056019, 82.600029)" style="fill: rgb(0, 113, 197);">
    <path id="path4423" d="m 88.79854,84.35368 0,48.12215 -15.31863,0 0,-60.4873 31.62545,0.0314 c 13.43261,0 18.00847,9.47252 18.00847,18.07669 l 0,42.37928 -15.29098,0 0,-42.3 c 0,-3.60428 -1.86574,-5.82215 -6.36602,-5.82215 l -12.65829,0 z m 104.16449,-0.7227 c -5.23588,0 -9.28815,2.69169 -10.9806,6.34574 -1.00293,2.19391 -1.34768,3.87529 -1.46567,6.56144 l 23.56698,0 c -0.30235,-6.56144 -3.27795,-12.90718 -11.12071,-12.90718 m -12.44627,23.33285 c 0,7.83538 4.87084,13.60222 13.56719,13.60222 6.76608,0 10.12884,-1.87496 14.041,-5.76684 l 9.46146,9.03373 c -6.05813,5.98071 -12.41493,9.61264 -23.61492,9.61264 -14.66415,0 -28.69778,-7.99578 -28.69778,-31.29913 0,-19.91109 12.2527,-31.18297 28.35302,-31.18297 16.31972,0 25.74799,13.19662 25.74799,30.4824 l 0,5.51795 -38.85796,0 m -28.17419,25.43641 c -12.47946,0 -17.77434,-8.68713 -17.77434,-17.26733 l 0,-59.62449 15.29467,0 0,16.48011 11.52999,0 0,12.36515 -11.52999,0 0,29.82054 c 0,3.51394 1.65926,5.46449 5.30778,5.46449 l 6.22221,0 0,12.76153 -9.05032,0 m -92.49254,-68.77068 -15.42371,0 0,-14.65124 15.42371,0 0,14.65124 z m 0.0388,69.48232 C 48.33856,132.00202 44.40981,124.99627 44.40981,116.912 l 0.0167,-44.92347 15.46244,0 0,61.12335 z m 183.82912,-1.29238 c -11.52631,-1.1117 -15.43662,-8.10639 -15.43662,-16.1796 l 0,-68.74672 15.43662,0 0,84.92632 z M 297.68253,56.82845 C 283.69314,-11.37625 151.29731,-15.694 65.95986,36.25734 l 0,5.7355 c 85.2508,-43.81176 206.15719,-43.55366 217.17282,19.26582 3.68539,20.77206 -8.01975,42.42906 -28.92455,54.87717 l 0,16.28654 c 25.16172,-9.20519 50.96686,-39.05523 43.47439,-75.59392 M 142.55855,176.16037 C 83.66229,181.60458 22.28821,173.05572 13.70063,127.03347 9.49718,104.34589 19.83251,80.29588 33.54351,65.35703 l 0,-7.9884 c -24.68238,21.64409 -38.07812,49.0458 -30.36626,81.42344 9.84309,41.51829 62.51713,65.04656 142.91552,57.2333 31.80981,-3.10465 73.44426,-13.33305 102.38908,-29.21952 l 0,-22.56957 c -26.2642,15.63941 -69.72568,28.57239 -105.9233,31.92409"/>
    <path id="path4425" d="M 260.352 59.177 C 263.733 59.177 266.512 56.419 266.512 53.036 C 266.512 49.659 263.733 46.893 260.352 46.893 C 256.934 46.893 254.207 49.659 254.207 53.036 C 254.207 56.419 256.934 59.177 260.352 59.177" style=""/>
    <path d="M 260.352 58.801 L 260.352 59.677 C 258.541 59.655 256.816 58.904 255.644 57.728 C 254.472 56.552 253.707 54.829 253.707 53.036 C 253.707 51.246 254.471 49.522 255.643 48.345 C 256.815 47.169 258.54 46.393 260.352 46.393 C 262.145 46.393 263.873 47.168 265.053 48.344 C 266.233 49.52 267.012 51.244 267.012 53.036 C 267.012 54.831 266.233 56.555 265.053 57.729 C 263.872 58.904 260.705 59.531 260.705 59.531 C 260.648 59.571 260.447 59.046 260.352 58.801 Z M 260.352 58.678 C 260.472 58.674 260.775 58.663 260.928 58.648 C 261.121 58.628 261.299 58.601 261.487 58.562 C 261.862 58.485 262.2 58.379 262.546 58.233 C 263.237 57.94 263.821 57.544 264.347 57.021 C 265.402 55.971 266.012 54.624 266.012 53.036 C 266.012 51.451 265.402 50.103 264.347 49.052 C 263.292 48.001 261.94 47.393 260.352 47.393 C 258.746 47.393 257.398 48 256.352 49.051 C 255.306 50.101 254.707 51.449 254.707 53.036 C 254.707 54.626 255.306 55.973 256.352 57.022 C 257.398 58.071 258.745 58.699 260.352 58.677 Z M 260.301 58.68 C 260.301 58.68 260.301 58.68 260.301 58.68 C 260.301 58.68 260.301 58.68 260.301 58.68 Z M 260.352 47.417 C 261.855 47.44 263.318 48.082 264.304 49.075 C 265.291 50.068 265.948 51.535 265.948 53.036 C 265.948 54.539 265.29 56 264.303 56.984 C 263.316 57.968 261.854 58.623 260.352 58.623 C 258.843 58.623 257.383 57.968 256.399 56.983 C 255.416 55.999 254.764 54.539 254.764 53.036 C 254.764 51.536 255.415 50.069 256.398 49.076 C 256.891 48.578 257.519 48.145 258.173 47.864 C 258.826 47.584 260.155 47.458 260.155 47.458 C 260.182 47.449 260.276 47.796 260.352 48.073 Z M 260.454 48.407 C 260.454 48.407 260.454 48.407 260.454 48.407 C 260.454 48.407 260.454 48.407 260.454 48.407 Z M 259.428 48.512 C 259.121 48.575 258.85 48.662 258.568 48.783 C 258.004 49.025 257.536 49.347 257.109 49.779 C 256.25 50.647 255.764 51.739 255.764 53.036 C 255.764 54.334 256.249 55.418 257.107 56.277 C 257.964 57.135 259.048 57.623 260.352 57.623 C 261.649 57.623 262.735 57.135 263.597 56.276 C 264.458 55.417 264.948 54.334 264.948 53.036 C 264.948 51.74 264.457 50.648 263.595 49.78 C 262.733 48.913 261.648 48.394 260.352 48.417 L 260.352 48.413 C 260.143 48.427 259.663 48.463 259.428 48.512 Z" style="fill: none;"/>
    <path d="M 260.352 58.801 L 260.352 59.677 C 258.541 59.655 256.816 58.904 255.644 57.728 C 254.472 56.552 253.707 54.829 253.707 53.036 C 253.707 51.246 254.471 49.522 255.643 48.345 C 256.815 47.169 258.54 46.393 260.352 46.393 C 262.145 46.393 263.873 47.168 265.053 48.344 C 266.233 49.52 267.012 51.244 267.012 53.036 C 267.012 54.831 266.233 56.555 265.053 57.729 C 263.872 58.904 260.705 59.531 260.705 59.531 C 260.648 59.571 260.447 59.046 260.352 58.801 Z M 260.352 58.678 C 260.472 58.674 260.775 58.663 260.928 58.648 C 261.121 58.628 261.299 58.601 261.487 58.562 C 261.862 58.485 262.2 58.379 262.546 58.233 C 263.237 57.94 263.821 57.544 264.347 57.021 C 265.402 55.971 266.012 54.624 266.012 53.036 C 266.012 51.451 265.402 50.103 264.347 49.052 C 263.292 48.001 261.94 47.393 260.352 47.393 C 258.746 47.393 257.398 48 256.352 49.051 C 255.306 50.101 254.707 51.449 254.707 53.036 C 254.707 54.626 255.306 55.973 256.352 57.022 C 257.398 58.071 258.745 58.699 260.352 58.677 Z M 260.301 58.68 C 260.301 58.68 260.301 58.68 260.301 58.68 C 260.301 58.68 260.301 58.68 260.301 58.68 Z M 260.352 47.417 C 261.855 47.44 263.318 48.082 264.304 49.075 C 265.291 50.068 265.948 51.535 265.948 53.036 C 265.948 54.539 265.29 56 264.303 56.984 C 263.316 57.968 261.854 58.623 260.352 58.623 C 258.843 58.623 257.383 57.968 256.399 56.983 C 255.416 55.999 254.764 54.539 254.764 53.036 C 254.764 51.536 255.415 50.069 256.398 49.076 C 256.891 48.578 257.519 48.145 258.173 47.864 C 258.826 47.584 260.155 47.458 260.155 47.458 C 260.182 47.449 260.276 47.796 260.352 48.073 Z M 260.454 48.407 C 260.454 48.407 260.454 48.407 260.454 48.407 C 260.454 48.407 260.454 48.407 260.454 48.407 Z M 259.428 48.512 C 259.121 48.575 258.85 48.662 258.568 48.783 C 258.004 49.025 257.536 49.347 257.109 49.779 C 256.25 50.647 255.764 51.739 255.764 53.036 C 255.764 54.334 256.249 55.418 257.107 56.277 C 257.964 57.135 259.048 57.623 260.352 57.623 C 261.649 57.623 262.735 57.135 263.597 56.276 C 264.458 55.417 264.948 54.334 264.948 53.036 C 264.948 51.74 264.457 50.648 263.595 49.78 C 262.733 48.913 261.648 48.394 260.352 48.417 L 260.352 48.413 C 260.143 48.427 259.663 48.463 259.428 48.512 Z" style="fill: none;"/>
    <path d="M 262.062 51.582 C 262.042 52.029 261.851 52.518 261.513 52.765 C 261.2 52.994 260.682 53.116 260.126 53.116 C 259.993 53.116 259.292 53.09 259.161 53.09 L 258.661 53.091 L 258.661 49.972 L 260.126 49.972 C 260.666 49.975 261.173 50.058 261.492 50.266 C 261.84 50.493 262.04 50.983 262.062 51.458 Z M 261.062 51.458 C 261.083 51.185 261.065 51.182 260.945 51.103 C 260.795 51.005 260.584 50.968 260.126 50.972 L 259.661 50.972 L 259.661 52.103 C 259.868 52.11 260.011 52.116 260.126 52.116 C 260.569 52.116 260.768 52.071 260.923 51.958 C 261.054 51.863 261.081 51.835 261.062 51.582 Z M 261.923 57.211 C 261.674 57.164 261.376 56.99 261.255 56.814 L 259.771 54.298 L 259.709 54.298 L 259.709 56.419 C 259.697 56.568 259.627 56.814 259.519 56.941 C 259.413 57.066 259.14 57.181 258.929 57.211 L 258.425 57.211 C 259.002 57.479 259.645 57.623 260.352 57.623 C 261.056 57.623 261.697 57.479 262.274 57.211 Z M 257.137 49.788 C 257.137 49.775 257.138 49.762 257.138 49.749 C 257.128 49.759 257.118 49.769 257.108 49.779 C 256.25 50.647 255.764 51.739 255.764 53.036 C 255.764 54.334 256.249 55.418 257.107 56.276 C 257.117 56.286 257.127 56.296 257.137 56.306 Z M 260.002 48.613 C 260.997 48.613 261.913 48.784 262.523 49.205 C 263.147 49.638 263.524 50.456 263.55 51.458 L 263.55 51.582 C 263.537 52.211 263.36 52.793 263.066 53.178 C 262.768 53.568 262.635 53.617 262.36 53.776 L 263.746 56.12 C 264.515 55.287 264.948 54.256 264.948 53.036 C 264.948 51.74 264.457 50.648 263.595 49.78 C 262.733 48.912 261.648 48.394 260.352 48.417 L 260.352 48.412 C 260.143 48.426 259.664 48.462 259.428 48.511 C 259.261 48.546 259.104 48.588 258.95 48.638 C 259.328 48.622 259.727 48.613 260.002 48.613 Z M 263.066 56.711 L 263.066 56.736 C 263.071 56.732 263.075 56.729 263.08 56.726 C 263.075 56.721 263.071 56.716 263.066 56.711 Z M 262.694 56.376 C 262.694 56.376 262.696 56.375 262.7 56.374 C 262.698 56.374 262.696 56.375 262.694 56.376 Z M 260.898 53.268 L 261.489 53.08 C 261.863 52.962 262.081 52.82 262.271 52.572 C 262.465 52.318 262.562 52.056 262.55 51.582 L 262.55 51.458 C 262.575 50.676 262.377 50.321 261.953 50.027 C 261.513 49.723 260.906 49.613 260.002 49.613 C 259.476 49.613 258.516 49.644 258.176 49.69 C 258.151 49.692 258.137 49.691 258.129 49.691 C 258.128 49.694 258.131 49.709 258.137 49.788 L 258.137 56.211 L 258.709 56.211 L 258.709 53.298 L 259.91 53.298 C 260.071 53.322 260.428 53.522 260.569 53.685 L 262.06 56.211 L 262.638 56.211 Z M 260.352 48.073 L 260.352 47.417 C 261.855 47.439 263.318 48.082 264.304 49.075 C 265.291 50.068 265.948 51.536 265.948 53.036 C 265.948 54.539 265.29 56 264.303 56.984 C 263.316 57.968 261.854 58.623 260.352 58.623 C 258.843 58.623 257.383 57.968 256.399 56.983 C 255.416 55.998 254.764 54.539 254.764 53.036 C 254.764 51.536 255.415 50.069 256.398 49.076 C 256.891 48.578 257.519 48.145 258.173 47.864 C 258.826 47.583 260.155 47.457 260.155 47.457 C 260.182 47.448 260.276 47.796 260.352 48.073 Z M 260.454 48.406 C 260.454 48.406 260.454 48.406 260.454 48.406 C 260.454 48.406 260.454 48.406 260.454 48.406 Z M 260.352 59.677 C 258.541 59.655 256.816 58.904 255.644 57.728 C 254.472 56.553 253.707 54.829 253.707 53.036 C 253.707 51.246 254.472 49.522 255.644 48.345 C 256.816 47.169 258.541 46.393 260.352 46.393 C 262.145 46.393 263.873 47.168 265.053 48.344 C 266.233 49.52 267.012 51.244 267.012 53.036 C 267.012 54.831 266.233 56.555 265.053 57.73 C 263.873 58.905 260.705 59.532 260.705 59.532 C 260.648 59.571 260.448 59.046 260.352 58.801 Z M 260.302 58.68 C 260.302 58.68 260.302 58.68 260.302 58.68 C 260.302 58.68 260.302 58.68 260.302 58.68 Z M 260.928 58.648 C 261.121 58.628 261.3 58.601 261.487 58.562 C 261.862 58.485 262.201 58.379 262.546 58.233 C 263.237 57.941 263.822 57.544 264.347 57.021 C 265.402 55.971 266.012 54.625 266.012 53.036 C 266.012 51.451 265.401 50.103 264.347 49.052 C 263.292 48.001 261.94 47.393 260.352 47.393 C 258.746 47.393 257.398 48.001 256.352 49.051 C 255.307 50.101 254.707 51.449 254.707 53.036 C 254.707 54.626 255.306 55.973 256.352 57.022 C 257.398 58.072 258.746 58.699 260.352 58.677 L 260.352 58.678 C 260.472 58.675 260.775 58.664 260.928 58.648 Z" style="fill: none;"/>
  </g>
</svg>