<?xml version="1.0" encoding="UTF-8" standalone="no"?>
<svg
   xmlns:dc="http://purl.org/dc/elements/1.1/"
   xmlns:cc="http://creativecommons.org/ns#"
   xmlns:rdf="http://www.w3.org/1999/02/22-rdf-syntax-ns#"
   xmlns:svg="http://www.w3.org/2000/svg"
   xmlns="http://www.w3.org/2000/svg"
   viewBox="0 0 48 48"
   height="48"
   width="48"
   xml:space="preserve"
   id="svg2"
   version="1.1"><metadata
     id="metadata8"><rdf:RDF><cc:Work
         rdf:about=""><dc:format>image/svg+xml</dc:format><dc:type
           rdf:resource="http://purl.org/dc/dcmitype/StillImage" /><dc:title></dc:title></cc:Work></rdf:RDF></metadata><defs
     id="defs6"><clipPath
       id="clipPath18"
       clipPathUnits="userSpaceOnUse"><path
         id="path16"
         d="M 0,612 H 792 V 0 H 0 Z" /></clipPath></defs><g
     transform="matrix(1.3333333,0,0,-1.3333333,0,816)"
     id="g10"><path
       id="path24"
       style="fill:#8cc63f;fill-opacity:1;fill-rule:nonzero;stroke:none;stroke-width:0.153876"
       d="m 3.6780911,595.65518 c 0,0 3.2547954,4.80281 9.7539279,5.29922 v 1.74218 C 6.2336714,602.11908 -2.005e-5,596.02234 -2.005e-5,596.02234 c 0,0 3.53038965,-10.20695 13.43203905,-11.14127 v 1.85205 c -7.2658994,0.91433 -9.7539279,8.92206 -9.7539279,8.92206 m 9.7539279,-5.23888 v -1.69632 c -5.4917029,0.97912 -7.01585,6.68777 -7.01585,6.68777 0,0 2.6365209,2.9215 7.01585,3.39483 v -1.86114 c -0.0034,0 -0.0056,9.3e-4 -0.0085,9.3e-4 -2.297993,0.2759 -4.093579,-1.8713 -4.093579,-1.8713 0,0 1.005891,-3.61439 4.102044,-4.65477 m 0,15.49461 v -3.21433 c 0.211271,0.0168 0.422697,0.0301 0.634894,0.038 8.184385,0.27561 13.516516,-6.71224 13.516516,-6.71224 0,0 -6.124748,-7.44732 -12.504933,-7.44732 -0.584729,0 -1.132068,0.054 -1.646477,0.14496 v -1.98685 c 0.439931,-0.0558 0.89556,-0.0888 1.371039,-0.0888 5.937787,0 10.231866,3.03215 14.389766,6.62102 0.688905,-0.55196 3.511462,-1.89468 4.091885,-2.48328 -3.95386,-3.30956 -13.167063,-5.97702 -18.390249,-5.97702 -0.503331,0 -0.98758,0.0303 -1.462441,0.0761 v -2.7921 H 35.999981 V 605.911 Z m 0,-7.10833 v 2.15182 c 0.208808,0.0149 0.419928,0.026 0.634894,0.0327 5.885316,0.18496 9.74654,-5.05684 9.74654,-5.05684 0,0 -4.17021,-5.79223 -8.641553,-5.79223 -0.643974,0 -1.220395,0.1039 -1.739881,0.27821 v 6.52514 c 2.29122,-0.27685 2.751773,-1.28888 4.129583,-3.58486 l 3.063529,2.58297 c 0,0 -2.236289,2.93303 -6.005956,2.93303 -0.410235,0 -0.802312,-0.0289 -1.187156,-0.07" /></g></svg>
